<svg width="85" height="18" viewBox="0 0 85 18" fill="none" xmlns="http://www.w3.org/2000/svg">
<path d="M79.7817 0.000976562H70.7819C68.3072 0.000976562 66.282 2.02615 66.282 4.50087V13.5011C66.282 15.9751 68.3072 18.001 70.7819 18.001H79.7817C82.2564 18.001 84.2815 15.9751 84.2815 13.5011V4.50087C84.2815 2.02615 82.2564 0.000976562 79.7817 0.000976562ZM82.7815 13.5011C82.7815 15.1548 81.4363 16.5009 79.7817 16.5009H70.7819C69.1279 16.5009 67.782 15.1548 67.782 13.5011V4.50087C67.782 2.84672 69.1279 1.50101 70.7819 1.50101H79.7817C81.4363 1.50101 82.7815 2.84672 82.7815 4.50087V13.5011Z" fill="white"/>
<path fill-rule="evenodd" clip-rule="evenodd" d="M67.2816 9.50098C66.8816 4.30098 68.4483 2.00098 69.2816 1.50098L73.7816 1.00098L80.7816 1.50098L82.2816 2.50098L83.2816 4.50098V9.00098V12.501L82.7816 15.501L81.7816 16.501L79.2816 17.501H76.7816L71.7816 17.001C70.9483 17.001 69.1816 16.901 68.7816 16.501C68.7459 16.4653 68.7102 16.4321 68.6745 16.3989C68.2102 15.9678 67.7459 15.5367 67.2816 9.50098ZM75.2816 4.50098C72.7959 4.50098 70.7817 6.51534 70.7817 9.00087C70.7817 11.4855 72.7959 13.5012 75.2816 13.5012C77.7667 13.5012 79.7815 11.4855 79.7815 9.00087C79.7815 6.51534 77.7667 4.50098 75.2816 4.50098ZM75.2816 12.0012C73.625 12.0012 72.2818 10.658 72.2818 9.00087C72.2818 7.34377 73.625 6.00101 75.2816 6.00101C76.9383 6.00101 78.2815 7.34377 78.2815 9.00087C78.2815 10.658 76.9383 12.0012 75.2816 12.0012ZM81.2822 4.12546C81.2822 4.74677 80.7785 5.25043 80.1572 5.25043C79.5359 5.25043 79.0322 4.74677 79.0322 4.12546C79.0322 3.50416 79.5359 3.00049 80.1572 3.00049C80.7785 3.00049 81.2822 3.50416 81.2822 4.12546Z" fill="white"/>
<path d="M41.44 9.922C41.374 9.922 39.922 9.922 39.262 9.922C38.91 9.922 38.8 9.79 38.8 9.46C38.8 8.58 38.8 7.678 38.8 6.798C38.8 6.446 38.932 6.336 39.262 6.336H41.44C41.44 6.27 41.44 4.994 41.44 4.4C41.44 3.52 41.594 2.684 42.034 1.914C42.496 1.122 43.156 0.594 43.992 0.286C44.542 0.0879998 45.092 0 45.686 0H47.842C48.15 0 48.282 0.132 48.282 0.44V2.948C48.282 3.256 48.15 3.388 47.842 3.388C47.248 3.388 46.654 3.388 46.06 3.41C45.466 3.41 45.158 3.696 45.158 4.312C45.136 4.972 45.158 5.61 45.158 6.292H47.71C48.062 6.292 48.194 6.424 48.194 6.776V9.438C48.194 9.79 48.084 9.9 47.71 9.9C46.918 9.9 45.224 9.9 45.158 9.9V17.072C45.158 17.446 45.048 17.578 44.652 17.578C43.728 17.578 42.826 17.578 41.902 17.578C41.572 17.578 41.44 17.446 41.44 17.116C41.44 14.806 41.44 9.988 41.44 9.922Z" fill="white"/>
<path d="M20.8 3.00249C20.02 3.34049 19.214 3.57449 18.356 3.67849C19.24 3.15849 19.916 2.32649 20.228 1.31249C19.396 1.80649 18.486 2.14449 17.524 2.35249C16.744 1.52049 15.626 1.00049 14.404 1.00049C12.038 1.00049 10.14 2.92449 10.14 5.26449C10.14 5.60249 10.166 5.91449 10.244 6.22649C6.708 6.07049 3.588 4.35449 1.482 1.78049C-0.0259998 4.48449 1.664 6.72049 2.782 7.47449C2.106 7.47449 1.43 7.26649 0.858 6.95449C0.858 9.06049 2.34 10.8025 4.264 11.1925C3.848 11.3225 2.912 11.4005 2.34 11.2705C2.886 12.9605 4.472 14.2085 6.318 14.2345C4.862 15.3785 2.73 16.2885 0 16.0025C1.898 17.2245 4.134 17.9265 6.552 17.9265C14.404 17.9265 18.668 11.4265 18.668 5.81049C18.668 5.62849 18.668 5.44649 18.642 5.26449C19.526 4.61449 20.254 3.86049 20.8 3.00249Z" fill="white"/>
</svg>
