<svg width="18" height="18" viewBox="0 0 18 18" fill="none" xmlns="http://www.w3.org/2000/svg">
<path d="M1.6875 3.9375H2.8125V15.4575C2.81398 15.9822 3.02307 16.4849 3.39407 16.8559C3.76507 17.2269 4.26783 17.436 4.7925 17.4375H13.23C13.7508 17.4301 14.2478 17.2184 14.6139 16.8481C14.9801 16.4777 15.1861 15.9783 15.1875 15.4575V3.9375H16.3125C16.4617 3.9375 16.6048 3.87824 16.7102 3.77275C16.8157 3.66726 16.875 3.52418 16.875 3.375C16.875 3.22582 16.8157 3.08274 16.7102 2.97725C16.6048 2.87176 16.4617 2.8125 16.3125 2.8125H12.375V1.6875C12.3751 1.39394 12.2604 1.11197 12.0555 0.901786C11.8506 0.691598 11.5716 0.569839 11.2781 0.5625H6.75C6.45163 0.5625 6.16548 0.681026 5.9545 0.892005C5.74353 1.10298 5.625 1.38913 5.625 1.6875V2.8125H1.6875C1.53832 2.8125 1.39524 2.87176 1.28975 2.97725C1.18426 3.08274 1.125 3.22582 1.125 3.375C1.125 3.52418 1.18426 3.66726 1.28975 3.77275C1.39524 3.87824 1.53832 3.9375 1.6875 3.9375ZM6.75 1.6875H11.25V2.8125H6.75V1.6875ZM5.625 3.9375H14.0625V15.4575C14.0625 15.6843 13.9724 15.9017 13.8121 16.0621C13.6517 16.2224 13.4343 16.3125 13.2075 16.3125H4.77C4.54716 16.3066 4.33543 16.214 4.17992 16.0543C4.02441 15.8945 3.93742 15.6804 3.9375 15.4575V3.9375H5.625Z" fill="#A1A1A1"/>
<path d="M7.13281 14.0625C7.282 14.0625 7.42507 14.0032 7.53056 13.8977C7.63605 13.7923 7.69531 13.6492 7.69531 13.5V6.75C7.69531 6.60082 7.63605 6.45774 7.53056 6.35225C7.42507 6.24676 7.282 6.1875 7.13281 6.1875C6.98363 6.1875 6.84055 6.24676 6.73506 6.35225C6.62958 6.45774 6.57031 6.60082 6.57031 6.75V13.5C6.57031 13.6492 6.62958 13.7923 6.73506 13.8977C6.84055 14.0032 6.98363 14.0625 7.13281 14.0625Z" fill="#A1A1A1"/>
<path d="M10.8672 14.0625C11.0164 14.0625 11.1594 14.0032 11.2649 13.8977C11.3704 13.7923 11.4297 13.6492 11.4297 13.5V6.75C11.4297 6.60082 11.3704 6.45774 11.2649 6.35225C11.1594 6.24676 11.0164 6.1875 10.8672 6.1875C10.718 6.1875 10.5749 6.24676 10.4694 6.35225C10.364 6.45774 10.3047 6.60082 10.3047 6.75V13.5C10.3047 13.6492 10.364 13.7923 10.4694 13.8977C10.5749 14.0032 10.718 14.0625 10.8672 14.0625Z" fill="#A1A1A1"/>
</svg>
