<svg width="18" height="25" viewBox="0 0 18 25" fill="none" xmlns="http://www.w3.org/2000/svg">
<path d="M9 12.5C10.1867 12.5 11.3467 12.1334 12.3334 11.4467C13.3201 10.7599 14.0892 9.78381 14.5433 8.64177C14.9974 7.49973 15.1162 6.24307 14.8847 5.03069C14.6532 3.81831 14.0818 2.70466 13.2426 1.83058C12.4035 0.956507 11.3344 0.361252 10.1705 0.120095C9.00666 -0.121063 7.80026 0.00270804 6.7039 0.475756C5.60754 0.948803 4.67047 1.74988 4.01118 2.77769C3.35189 3.8055 3 5.01387 3 6.25C3.00159 7.9071 3.63424 9.49585 4.75911 10.6676C5.88399 11.8393 7.40919 12.4983 9 12.5ZM9 2.08334C9.79112 2.08334 10.5645 2.32771 11.2223 2.78555C11.8801 3.24338 12.3928 3.89413 12.6955 4.65549C12.9983 5.41685 13.0775 6.25462 12.9231 7.06288C12.7688 7.87113 12.3878 8.61356 11.8284 9.19628C11.269 9.779 10.5563 10.1758 9.78036 10.3366C9.00444 10.4974 8.20017 10.4149 7.46927 10.0995C6.73836 9.78413 6.11365 9.25008 5.67412 8.56488C5.2346 7.87967 5 7.07409 5 6.25C5 5.14493 5.42143 4.08512 6.17157 3.30372C6.92172 2.52232 7.93913 2.08334 9 2.08334Z" fill="white"/>
<path d="M9 14.5833C6.61386 14.5861 4.32622 15.5747 2.63896 17.3323C0.951708 19.0898 0.00264685 21.4728 0 23.9583C0 24.2346 0.105357 24.4996 0.292893 24.6949C0.480429 24.8903 0.734783 25 1 25C1.26522 25 1.51957 24.8903 1.70711 24.6949C1.89464 24.4996 2 24.2346 2 23.9583C2 22.0245 2.7375 20.1698 4.05025 18.8024C5.36301 17.4349 7.14348 16.6667 9 16.6667C10.8565 16.6667 12.637 17.4349 13.9497 18.8024C15.2625 20.1698 16 22.0245 16 23.9583C16 24.2346 16.1054 24.4996 16.2929 24.6949C16.4804 24.8903 16.7348 25 17 25C17.2652 25 17.5196 24.8903 17.7071 24.6949C17.8946 24.4996 18 24.2346 18 23.9583C17.9973 21.4728 17.0483 19.0898 15.361 17.3323C13.6738 15.5747 11.3861 14.5861 9 14.5833Z" fill="white"/>
</svg>
