<svg width="16" height="16" viewBox="0 0 16 16" fill="none" xmlns="http://www.w3.org/2000/svg">
<path d="M15.2012 13.6011H0.800065C0.587875 13.6011 0.384375 13.6854 0.234334 13.8354C0.0842923 13.9854 0 14.189 0 14.4011C0 14.6133 0.0842923 14.8168 0.234334 14.9669C0.384375 15.1169 0.587875 15.2012 0.800065 15.2012H15.2012C15.4134 15.2012 15.6169 15.1169 15.767 14.9669C15.917 14.8168 16.0013 14.6133 16.0013 14.4011C16.0013 14.189 15.917 13.9854 15.767 13.8354C15.6169 13.6854 15.4134 13.6011 15.2012 13.6011Z" fill="url(#paint0_linear_75_618)"/>
<path d="M7.99898 0C7.78679 0 7.58329 0.0842923 7.43325 0.234334C7.2832 0.384375 7.19891 0.587875 7.19891 0.800065V9.27276L4.5667 6.63254C4.41604 6.48188 4.21171 6.39725 3.99865 6.39725C3.78559 6.39725 3.58126 6.48188 3.43061 6.63254C3.27995 6.7832 3.19531 6.98753 3.19531 7.20059C3.19531 7.41365 3.27995 7.61798 3.43061 7.76863L7.43093 11.769C7.50531 11.8439 7.5938 11.9035 7.69129 11.9441C7.78879 11.9847 7.89336 12.0056 7.99898 12.0056C8.1046 12.0056 8.20917 11.9847 8.30666 11.9441C8.40416 11.9035 8.49265 11.8439 8.56702 11.769L12.5673 7.76863C12.6419 7.69404 12.7011 7.60548 12.7415 7.50801C12.7819 7.41055 12.8026 7.30608 12.8026 7.20059C12.8026 7.09509 12.7819 6.99063 12.7415 6.89316C12.7011 6.7957 12.6419 6.70714 12.5673 6.63254C12.4928 6.55794 12.4042 6.49877 12.3067 6.4584C12.2093 6.41803 12.1048 6.39725 11.9993 6.39725C11.8938 6.39725 11.7893 6.41803 11.6919 6.4584C11.5944 6.49877 11.5059 6.55794 11.4313 6.63254L8.79904 9.27276V0.800065C8.79904 0.587875 8.71475 0.384375 8.56471 0.234334C8.41467 0.0842923 8.21117 0 7.99898 0Z" fill="url(#paint1_linear_75_618)"/>
<defs>
<linearGradient id="paint0_linear_75_618" x1="3.56371" y1="13.025" x2="15.1509" y2="17.4354" gradientUnits="userSpaceOnUse">
<stop stop-color="#5E3928"/>
<stop offset="0.911458" stop-color="#E4A16F"/>
</linearGradient>
<linearGradient id="paint1_linear_75_618" x1="5.335" y1="-4.32202" x2="13.2926" y2="-4.07964" gradientUnits="userSpaceOnUse">
<stop stop-color="#5E3928"/>
<stop offset="0.911458" stop-color="#E4A16F"/>
</linearGradient>
</defs>
</svg>
