<svg width="50" height="63" viewBox="0 0 50 63" fill="none" xmlns="http://www.w3.org/2000/svg">
<rect x="50" width="63" height="50" transform="rotate(90 50 0)" fill="white"/>
<g clip-path="url(#clip0_23_416)">
<path d="M31.8749 19.3962C30.4674 19.4181 29.0905 19.8111 27.8834 20.5353C26.6763 21.2596 25.6816 22.2896 24.9999 23.5212C24.3182 22.2896 23.3236 21.2596 22.1165 20.5353C20.9094 19.8111 19.5325 19.4181 18.1249 19.3962C15.8811 19.4937 13.7671 20.4753 12.2447 22.1265C10.7223 23.7778 9.91526 25.9644 9.99995 28.2087C9.99995 33.8925 15.9824 40.1 20.9999 44.3087C22.1202 45.2502 23.5366 45.7663 24.9999 45.7663C26.4633 45.7663 27.8797 45.2502 28.9999 44.3087C34.0174 40.1 39.9999 33.8925 39.9999 28.2087C40.0846 25.9644 39.2776 23.7778 37.7552 22.1265C36.2328 20.4753 34.1188 19.4937 31.8749 19.3962ZM27.3937 42.3962C26.7237 42.9605 25.8759 43.2699 24.9999 43.2699C24.124 43.2699 23.2762 42.9605 22.6062 42.3962C16.1837 37.0075 12.4999 31.8375 12.4999 28.2087C12.4145 26.6271 12.9579 25.0759 14.0117 23.8934C15.0654 22.7108 16.544 21.9929 18.1249 21.8962C19.7059 21.9929 21.1845 22.7108 22.2382 23.8934C23.292 25.0759 23.8354 26.6271 23.7499 28.2087C23.7499 28.5403 23.8816 28.8582 24.1161 29.0926C24.3505 29.327 24.6684 29.4587 24.9999 29.4587C25.3315 29.4587 25.6494 29.327 25.8838 29.0926C26.1182 28.8582 26.2499 28.5403 26.2499 28.2087C26.1645 26.6271 26.7079 25.0759 27.7617 23.8934C28.8154 22.7108 30.294 21.9929 31.8749 21.8962C33.4559 21.9929 34.9345 22.7108 35.9882 23.8934C37.042 25.0759 37.5854 26.6271 37.4999 28.2087C37.4999 31.8375 33.8162 37.0075 27.3937 42.3912V42.3962Z" fill="#031412"/>
</g>
<defs>
<clipPath id="clip0_23_416">
<rect width="30" height="30" fill="white" transform="translate(10 17)"/>
</clipPath>
</defs>
</svg>
