<svg width="24" height="25" viewBox="0 0 24 25" fill="none" xmlns="http://www.w3.org/2000/svg">
<g clip-path="url(#clip0_75_571)">
<path d="M17.5009 1.99689C16.3749 2.01513 15.2734 2.34257 14.3077 2.94613C13.342 3.54969 12.5463 4.408 12.0009 5.43439C11.4556 4.408 10.6599 3.54969 9.69417 2.94613C8.72847 2.34257 7.62698 2.01513 6.50093 1.99689C4.70588 2.07813 3.01464 2.89611 1.79672 4.27213C0.578794 5.64815 -0.0668157 7.47035 0.000934853 9.34064C0.000934853 14.0771 4.78693 19.25 8.80093 22.7573C9.69715 23.5418 10.8303 23.9719 12.0009 23.9719C13.1716 23.9719 14.3047 23.5418 15.2009 22.7573C19.2149 19.25 24.0009 14.0771 24.0009 9.34064C24.0687 7.47035 23.4231 5.64815 22.2052 4.27213C20.9872 2.89611 19.296 2.07813 17.5009 1.99689ZM13.9159 21.1636C13.3799 21.6337 12.7017 21.8916 12.0009 21.8916C11.3002 21.8916 10.622 21.6337 10.0859 21.1636C4.94793 16.6729 2.00093 12.3646 2.00093 9.34064C1.93258 8.02263 2.3673 6.72994 3.2103 5.74449C4.05329 4.75904 5.23617 4.16079 6.50093 4.08022C7.7657 4.16079 8.94857 4.75904 9.79157 5.74449C10.6346 6.72994 11.0693 8.02263 11.0009 9.34064C11.0009 9.6169 11.1063 9.88186 11.2938 10.0772C11.4814 10.2726 11.7357 10.3823 12.0009 10.3823C12.2662 10.3823 12.5205 10.2726 12.708 10.0772C12.8956 9.88186 13.0009 9.6169 13.0009 9.34064C12.9326 8.02263 13.3673 6.72994 14.2103 5.74449C15.0533 4.75904 16.2362 4.16079 17.5009 4.08022C18.7657 4.16079 19.9486 4.75904 20.7916 5.74449C21.6346 6.72994 22.0693 8.02263 22.0009 9.34064C22.0009 12.3646 19.0539 16.6729 13.9159 21.1594V21.1636Z" fill="white"/>
</g>
<defs>
<clipPath id="clip0_75_571">
<rect width="24" height="25" fill="white"/>
</clipPath>
</defs>
</svg>
