<svg width="18" height="18" viewBox="0 0 18 18" fill="none" xmlns="http://www.w3.org/2000/svg">
<g clip-path="url(#clip0_75_664)">
<path d="M0.0419731 9.22494C0.0480461 9.24057 0.0546989 9.25596 0.0619354 9.2711C0.860147 10.9289 2.10242 12.3312 3.65427 13.3265C5.24878 14.3491 7.0973 14.8895 8.99989 14.8895C10.9025 14.8895 12.7511 14.349 14.3456 13.3263C15.8918 12.3347 17.1306 10.9389 17.9291 9.28906C18.0186 9.11764 18.0253 8.91038 17.9383 8.72964C17.1401 7.07158 15.8979 5.66904 14.3458 4.67362C12.7512 3.65084 10.9026 3.1103 8.99989 3.1103C7.09722 3.1103 5.24861 3.65084 3.6541 4.67354C2.10209 5.66887 0.859898 7.07133 0.0616856 8.72923C-0.0130043 8.88451 -0.0199909 9.06425 0.0419731 9.22494ZM8.99989 4.35798C12.209 4.35798 15.1896 6.17024 16.6778 9.00004C15.1896 11.8298 12.209 13.642 8.99989 13.642C5.7909 13.642 2.81014 11.8297 1.32201 8.99995C2.81023 6.1704 5.79099 4.35798 8.99989 4.35798Z" fill="#031412"/>
<path d="M9.00047 11.7378C10.5101 11.7378 11.7383 10.5096 11.7383 8.99998C11.7383 7.49039 10.5101 6.26217 9.00047 6.26217C7.49087 6.26217 6.26265 7.49039 6.26265 8.99998C6.26265 10.5096 7.49087 11.7378 9.00047 11.7378ZM9.00047 7.50977C9.82214 7.50977 10.4907 8.17831 10.4907 8.99998C10.4907 9.82165 9.82214 10.4902 9.00047 10.4902C8.1788 10.4902 7.51025 9.82165 7.51025 8.99998C7.51025 8.17831 8.1788 7.50977 9.00047 7.50977Z" fill="#031412"/>
</g>
<defs>
<clipPath id="clip0_75_664">
<rect width="18" height="18" fill="white" transform="translate(18 18) rotate(-180)"/>
</clipPath>
</defs>
</svg>
