<svg width="25" height="27" viewBox="0 0 25 27" fill="none" xmlns="http://www.w3.org/2000/svg">
<path d="M24.2635 4.91831C23.9669 4.54513 23.5955 4.24499 23.1758 4.03921C22.7561 3.83343 22.2983 3.72707 21.8349 3.72766H4.78571L4.74142 3.33962C4.65078 2.53304 4.28101 1.78937 3.70219 1.24959C3.12338 0.709811 2.37577 0.41145 1.6011 0.411072L1.367 0.411072C1.08733 0.411072 0.819115 0.527547 0.621357 0.734874C0.423599 0.9422 0.3125 1.2234 0.3125 1.5166C0.3125 1.8098 0.423599 2.091 0.621357 2.29833C0.819115 2.50565 1.08733 2.62213 1.367 2.62213H1.6011C1.85939 2.62216 2.10868 2.72158 2.30169 2.90151C2.4947 3.08145 2.61801 3.32939 2.64823 3.59831L4.09923 16.533C4.24986 17.8782 4.86636 19.1186 5.83168 20.0187C6.79701 20.9189 8.04398 21.4161 9.3359 21.4161H20.3481C20.6278 21.4161 20.896 21.2996 21.0937 21.0923C21.2915 20.885 21.4026 20.6038 21.4026 20.3106C21.4026 20.0174 21.2915 19.7362 21.0937 19.5289C20.896 19.3215 20.6278 19.2051 20.3481 19.2051H9.3359C8.68322 19.2031 8.04708 18.9896 7.5147 18.5938C6.98232 18.1979 6.57975 17.6391 6.36219 16.994H18.9319C20.1681 16.9941 21.365 16.5388 22.3135 15.7077C23.262 14.8765 23.9018 13.7224 24.1211 12.447L24.9489 7.63349C25.0315 7.15591 25.013 6.66512 24.8945 6.1959C24.776 5.72668 24.5606 5.29052 24.2635 4.91831ZM22.8789 7.24103L22.0501 12.0545C21.9184 12.8206 21.5338 13.5138 20.9638 14.0126C20.3937 14.5114 19.6744 14.7841 18.9319 14.7829H6.02686L5.03457 5.93872H21.8349C21.9898 5.93775 22.1431 5.97257 22.2837 6.04071C22.4243 6.10884 22.5489 6.20863 22.6485 6.33295C22.7482 6.45728 22.8205 6.60311 22.8603 6.76005C22.9001 6.917 22.9065 7.08122 22.8789 7.24103Z" fill="white"/>
<path d="M7.69495 26.9437C8.85972 26.9437 9.80395 25.9538 9.80395 24.7327C9.80395 23.5115 8.85972 22.5216 7.69495 22.5216C6.53017 22.5216 5.58594 23.5115 5.58594 24.7327C5.58594 25.9538 6.53017 26.9437 7.69495 26.9437Z" fill="white"/>
<path d="M18.2379 26.9437C19.4027 26.9437 20.3469 25.9538 20.3469 24.7327C20.3469 23.5115 19.4027 22.5216 18.2379 22.5216C17.0731 22.5216 16.1289 23.5115 16.1289 24.7327C16.1289 25.9538 17.0731 26.9437 18.2379 26.9437Z" fill="white"/>
</svg>
