<?xml version="1.0" standalone="no"?>
<!DOCTYPE svg PUBLIC "-//W3C//DTD SVG 20010904//EN"
 "http://www.w3.org/TR/2001/REC-SVG-20010904/DTD/svg10.dtd">
<svg version="1.0" xmlns="http://www.w3.org/2000/svg"
 width="70.000000pt" height="30.000000pt" viewBox="0 0 70.000000 30.000000"
 preserveAspectRatio="xMidYMid meet">
<metadata>
Created by potrace 1.16, written by Peter Selinger 2001-2019
</metadata>
<g transform="translate(0.000000,30.000000) scale(0.079545,-0.060000)"
fill="#000000" stroke="none">
<path d="M432 493 l438 -3 0 -240 0 -240 -437 -3 -438 -2 443 -3 442 -2 0 250
0 250 -442 -2 -443 -3 437 -2z"/>
<path d="M465 320 l-70 -70 73 -72 72 -73 22 23 22 22 -49 50 -49 50 49 50
c48 48 48 50 30 70 -10 11 -21 20 -24 20 -4 0 -38 -32 -76 -70z"/>
</g>
</svg>
